<svg version="1.1" id="Layer_1" xmlns="http://www.w3.org/2000/svg" xmlns:xlink="http://www.w3.org/1999/xlink" x="0px" y="0px"
	 viewBox="0 0 38 57" style="enable-background:new 0 0 38 57;" xml:space="preserve">
<path fill="#FF7262" d="M19,38v19h9.5c5.2,0,9.5-4.3,9.5-9.5S33.7,38,28.5,38H19z"/>
<path fill="#F24E1E" d="M0,47.5C0,52.7,4.3,57,9.5,57H19V38H9.5C4.3,38,0,42.3,0,47.5z"/>
<path fill="#0ACF83" d="M9.5,0C14.7,0,19,4.3,19,9.5V19H9.5C4.3,19,0,14.7,0,9.5S4.3,0,9.5,0z"/>
<path fill="#A259FF" d="M0,28.5C0,33.7,4.3,38,9.5,38H19V19H9.5C4.3,19,0,23.3,0,28.5z"/>
</svg>
