<?xml version="1.0" encoding="utf-8"?>
<!-- Generator: Adobe Illustrator 24.1.2, SVG Export Plug-In . SVG Version: 6.00 Build 0)  -->
<svg version="1.1" id="Layer_1" xmlns="http://www.w3.org/2000/svg" xmlns:xlink="http://www.w3.org/1999/xlink" x="0px" y="0px"
	 viewBox="0 0 73 26" style="enable-background:new 0 0 73 26;" xml:space="preserve">
<style type="text/css">
	.st0{fill-rule:evenodd;clip-rule:evenodd;}
</style>
<path d="M3.1,9.6V0L0.5,0v20.2h10.7v-2.5H3.1v-5.5 M15.9,4.1c0.9,0,1.7-0.8,1.7-1.7s-0.8-1.7-1.7-1.7c-0.9,0-1.7,0.8-1.7,1.7
	S15,4.1,15.9,4.1L15.9,4.1z M14.6,6.6v13.5h2.6V6.6H14.6z"/>
<path class="st0" d="M26.8,6.2c-3.4,0-5.8,2.9-5.8,6.4s2.4,6.4,5.8,6.4c1.6,0,2.9-0.6,3.8-1.6v1.8c0,2.2-1.8,4.1-4,4.1c0,0,0,0,0,0
	c-0.8,0-1.6-0.3-2.3-0.8L23,24.8c3.1,2,7.2,1.1,9.2-2c0.7-1.1,1.1-2.3,1.1-3.6V6.6h-2.6v1.2C29.7,6.8,28.4,6.3,26.8,6.2L26.8,6.2z
	 M23.6,12.6c0-2.2,1.6-3.8,3.5-3.8c1.9,0,3.5,1.7,3.5,3.8c0,2.2-1.6,3.8-3.5,3.8C25.2,16.4,23.6,14.8,23.6,12.6z"/>
<path d="M42.6,8.8c-1.5,0-2.8,1.3-2.8,2.8v8.6h-2.6V6.6h2.6v1.2c0.8-1,2-1.7,3.3-1.6c1.8,0,3.2,0.9,4,2.3c0.9-1.4,2.5-2.3,4.1-2.3
	c3,0,4.8,2.4,4.8,5.3v8.6h-2.6v-8.6c0-1.5-1.2-2.8-2.8-2.8c-1.5,0-2.8,1.3-2.8,2.8v8.6h-2.6v-8.6C45.4,10.1,44.1,8.8,42.6,8.8
	L42.6,8.8z"/>
<path class="st0" d="M69.9,8.2c-1.2-1.2-2.8-1.9-4.6-1.9c-3.9,0-6.6,3.3-6.6,7.2s2.7,7.2,6.6,7.2c1.7,0,3.4-0.7,4.6-1.9v1.5h2.6V6.6
	h-2.6L69.9,8.2L69.9,8.2z M61.3,13.4c0-2.6,2-4.6,4.3-4.6c2.3,0,4.3,2.1,4.3,4.6s-2,4.6-4.3,4.6C63.3,18,61.3,16,61.3,13.4z"/>
</svg>
